<mxfile host="Electron" modified="2024-04-04T21:28:17.002Z" agent="Mozilla/5.0 (Windows NT 10.0; Win64; x64) AppleWebKit/537.36 (KHTML, like Gecko) draw.io/24.1.0 Chrome/120.0.6099.109 Electron/28.1.0 Safari/537.36" etag="KrDM3QyLYgSoe69ZVmCe" version="24.1.0" type="device">
  <diagram name="Page-1" id="Pm5BAmgCNdrWoA_9CBqx">
    <mxGraphModel dx="670" dy="334" grid="1" gridSize="10" guides="1" tooltips="1" connect="1" arrows="1" fold="1" page="1" pageScale="1" pageWidth="850" pageHeight="1100" math="0" shadow="0">
      <root>
        <mxCell id="0" />
        <mxCell id="1" parent="0" />
        <mxCell id="l74ztG7COZO9kIQqhxVO-4" value="" style="edgeStyle=orthogonalEdgeStyle;rounded=0;orthogonalLoop=1;jettySize=auto;html=1;" edge="1" parent="1" source="l74ztG7COZO9kIQqhxVO-2" target="l74ztG7COZO9kIQqhxVO-3">
          <mxGeometry relative="1" as="geometry" />
        </mxCell>
        <mxCell id="l74ztG7COZO9kIQqhxVO-5" value="Propuesto por" style="edgeLabel;html=1;align=center;verticalAlign=middle;resizable=0;points=[];" vertex="1" connectable="0" parent="l74ztG7COZO9kIQqhxVO-4">
          <mxGeometry x="0.1333" y="1" relative="1" as="geometry">
            <mxPoint x="-28" y="1" as="offset" />
          </mxGeometry>
        </mxCell>
        <mxCell id="l74ztG7COZO9kIQqhxVO-7" value="" style="edgeStyle=orthogonalEdgeStyle;rounded=0;orthogonalLoop=1;jettySize=auto;html=1;" edge="1" parent="1" source="l74ztG7COZO9kIQqhxVO-2" target="l74ztG7COZO9kIQqhxVO-6">
          <mxGeometry relative="1" as="geometry" />
        </mxCell>
        <mxCell id="l74ztG7COZO9kIQqhxVO-2" value="Aprendizaje Significativo" style="ellipse;whiteSpace=wrap;html=1;" vertex="1" parent="1">
          <mxGeometry x="280" y="140" width="160" height="40" as="geometry" />
        </mxCell>
        <mxCell id="l74ztG7COZO9kIQqhxVO-12" value="" style="edgeStyle=orthogonalEdgeStyle;rounded=0;orthogonalLoop=1;jettySize=auto;html=1;entryX=1.014;entryY=0.611;entryDx=0;entryDy=0;entryPerimeter=0;" edge="1" parent="1" source="l74ztG7COZO9kIQqhxVO-3" target="l74ztG7COZO9kIQqhxVO-6">
          <mxGeometry relative="1" as="geometry">
            <Array as="points">
              <mxPoint x="460" y="215" />
              <mxPoint x="460" y="288" />
              <mxPoint x="422" y="288" />
            </Array>
          </mxGeometry>
        </mxCell>
        <mxCell id="l74ztG7COZO9kIQqhxVO-14" value="Fundamento&lt;div&gt;que los&lt;/div&gt;" style="edgeLabel;html=1;align=center;verticalAlign=middle;resizable=0;points=[];" vertex="1" connectable="0" parent="l74ztG7COZO9kIQqhxVO-12">
          <mxGeometry x="-0.1137" relative="1" as="geometry">
            <mxPoint as="offset" />
          </mxGeometry>
        </mxCell>
        <mxCell id="l74ztG7COZO9kIQqhxVO-3" value="Ausubel" style="rounded=0;whiteSpace=wrap;html=1;" vertex="1" parent="1">
          <mxGeometry x="480" y="200" width="80" height="30" as="geometry" />
        </mxCell>
        <mxCell id="l74ztG7COZO9kIQqhxVO-16" value="" style="edgeStyle=orthogonalEdgeStyle;rounded=0;orthogonalLoop=1;jettySize=auto;html=1;" edge="1" parent="1" source="l74ztG7COZO9kIQqhxVO-6" target="l74ztG7COZO9kIQqhxVO-15">
          <mxGeometry relative="1" as="geometry" />
        </mxCell>
        <mxCell id="l74ztG7COZO9kIQqhxVO-17" value="Consiste&lt;div&gt;en&lt;/div&gt;" style="edgeLabel;html=1;align=center;verticalAlign=middle;resizable=0;points=[];" vertex="1" connectable="0" parent="l74ztG7COZO9kIQqhxVO-16">
          <mxGeometry x="-0.0667" y="-1" relative="1" as="geometry">
            <mxPoint as="offset" />
          </mxGeometry>
        </mxCell>
        <mxCell id="l74ztG7COZO9kIQqhxVO-6" value="Mapas conceptuales" style="whiteSpace=wrap;html=1;" vertex="1" parent="1">
          <mxGeometry x="300" y="270" width="120" height="30" as="geometry" />
        </mxCell>
        <mxCell id="l74ztG7COZO9kIQqhxVO-19" value="" style="edgeStyle=orthogonalEdgeStyle;rounded=0;orthogonalLoop=1;jettySize=auto;html=1;" edge="1" parent="1" source="l74ztG7COZO9kIQqhxVO-15" target="l74ztG7COZO9kIQqhxVO-18">
          <mxGeometry relative="1" as="geometry" />
        </mxCell>
        <mxCell id="l74ztG7COZO9kIQqhxVO-20" value="Manteniendo&lt;div&gt;una&lt;/div&gt;" style="edgeLabel;html=1;align=center;verticalAlign=middle;resizable=0;points=[];" vertex="1" connectable="0" parent="l74ztG7COZO9kIQqhxVO-19">
          <mxGeometry x="-0.0556" y="2" relative="1" as="geometry">
            <mxPoint as="offset" />
          </mxGeometry>
        </mxCell>
        <mxCell id="l74ztG7COZO9kIQqhxVO-15" value="Enlazar conceptos" style="whiteSpace=wrap;html=1;" vertex="1" parent="1">
          <mxGeometry x="300" y="360" width="120" height="20" as="geometry" />
        </mxCell>
        <mxCell id="l74ztG7COZO9kIQqhxVO-18" value="Jerarquia" style="whiteSpace=wrap;html=1;" vertex="1" parent="1">
          <mxGeometry x="510" y="355" width="80" height="30" as="geometry" />
        </mxCell>
      </root>
    </mxGraphModel>
  </diagram>
</mxfile>
